<?xml version="1.0" encoding="utf-8"?>
<!-- Generator: Adobe Illustrator 23.0.5, SVG Export Plug-In . SVG Version: 6.00 Build 0)  -->
<svg version="1.1" id="man-thinking-while-doing-work-in-laptop"
	 xmlns="http://www.w3.org/2000/svg" xmlns:xlink="http://www.w3.org/1999/xlink" x="0px" y="0px" viewBox="0 0 1080 1080"
	 style="enable-background:new 0 0 1080 1080;" xml:space="preserve">
<style type="text/css">
	.st0{opacity:7.000000e-02;fill:#2A94F4;enable-background:new    ;}
	.st1{fill:#D3D3D3;}
	.st2{fill:#F58F29;}
	.st3{opacity:0.41;}
	.st4{fill:#F9C80E;}
	.st5{fill:#F9C80E;stroke:#F9C80E;stroke-miterlimit:10;}
	.st6{fill:#FFE3CA;}
	.st7{fill:#0B4870;}
	.st8{fill:#FCD2B1;}
	.st9{fill:#F58F29;stroke:#000000;stroke-miterlimit:10;}
	.st10{fill:#FFFFFF;}
</style>
<path class="st0" d="M764.5,694.6c-2.7,0,93.7-208.8-9.8-179.1s-120.4,38.6-102.6-31.9s-36.6-233.7-121.3-123.1
	S328.3,403.3,314,464.9s53.5,75.8,10.7,102.6s-16.1,127.1-16.1,127.1H764.5z"/>
<path class="st1" d="M858.2,717.8H234.4c-5.1,0-9.3-4.2-9.3-9.3v-8.1c0-5.1,4.2-9.3,9.3-9.3h623.7c5.1,0,9.3,4.2,9.3,9.3v8.1
	C867.5,713.7,863.3,717.8,858.2,717.8L858.2,717.8z"/>
<path class="st2" d="M379.3,639.7h44.4V692h-44.4V639.7z"/>
<path class="st2" d="M380.6,687.1c-10.1,0-18.4-8.2-18.4-18.4s8.2-18.4,18.4-18.4s18.4,8.2,18.4,18.4S390.8,687.1,380.6,687.1z
	 M380.6,654.4c-7.9,0-14.4,6.4-14.4,14.4s6.4,14.4,14.4,14.4s14.4-6.4,14.4-14.4S388.5,654.4,380.6,654.4z"/>
<g class="st3">
	<path class="st4" d="M408.5,636.3c-0.5,0-0.9-0.2-1.2-0.6c-0.2-0.3-4.8-6.5-3.4-13.3c0.8-3.9,3.4-7.2,7.6-9.7
		c5-2.9,5.3-4.8,5.2-5.4c-0.2-1.6-3.4-3-4.9-3.4c-0.8-0.2-1.3-1-1.1-1.8c0.2-0.8,1-1.3,1.8-1.1c0.7,0.2,6.5,1.9,7.1,5.9
		c0.4,2.8-1.8,5.5-6.7,8.4c-3.5,2.1-5.6,4.7-6.2,7.7c-1.1,5.5,2.9,10.8,2.9,10.9c0.5,0.7,0.4,1.6-0.3,2.1
		C409.1,636.2,408.8,636.3,408.5,636.3L408.5,636.3z"/>
</g>
<g class="st3">
	<path class="st4" d="M392,634.8c-0.7,0-1.3-0.5-1.5-1.1c-0.2-0.8,0.3-1.6,1.1-1.8c2.2-0.5,2.5-1.1,2.5-1.1c0-0.4-0.5-1.9-8.7-6.7
		c-2.3-1.3-2.6-2.9-2.6-4c0.3-5,11.3-9.9,13.5-10.8c0.8-0.3,1.6,0,2,0.8c0.3,0.8,0,1.6-0.8,2c-5.5,2.4-11.6,6.2-11.7,8.3
		c0,0.4,0.3,0.8,1.1,1.2c6.7,3.9,10.6,6.8,10.1,9.7c-0.4,2.5-3.7,3.3-4.7,3.6C392.2,634.8,392.1,634.8,392,634.8L392,634.8z"/>
</g>
<g class="st3">
	<path class="st4" d="M400.3,601.9c-0.4,0-0.7-0.1-1-0.4c-0.6-0.6-0.6-1.5-0.1-2.1c0.8-0.8,2.9-3.7,2.4-5.5
		c-0.2-0.8-1.1-1.5-2.5-1.9c-2.6-0.8-3.4-2.3-3.6-3.5c-0.8-4.3,5.9-9.7,7.3-10.8c0.7-0.5,1.6-0.4,2.1,0.3s0.4,1.6-0.3,2.1
		c-2.7,2.1-6.5,6-6.2,7.9c0.1,0.5,0.6,0.8,1.5,1.1c2.5,0.8,4,2.1,4.5,4c1,3.8-2.7,7.8-3.1,8.3C401.1,601.8,400.7,601.9,400.3,601.9
		L400.3,601.9z"/>
</g>
<path class="st5" d="M609.3,576.1c0.9-12.2,1.5-23.6,1.9-34.2c-2.9-1.6-6.5-3.4-9.3-4.7c-8.7-4.2-20.9-9.8-28.7-13.4
	c-4.6-2.1-9.1-3.6-9.1-3.6s-31.2-3-33.8-2.8c-0.8,0-4.7,1.4-9.8,3.4c-11.1,4.2-32.4,12.8-35.8,15.2c-5,3.6-22.8,91-23.3,97
	c-0.5,5.8,24.3,13.7,47.2,19.7c0,8.9-0.2,21.3-0.4,32.6c0,1.9-0.1,3.8-0.1,5.7h100.2c-0.1-1.9-0.3-3.9-0.4-5.7v-0.7
	c-0.4-7.7-1.9-21.4-1.5-34.8c0,0-0.2-14.1,1.2-20.2C607.7,602.7,609.3,576.1,609.3,576.1L609.3,576.1z M482.2,627.6
	c0.2-11.4,15.3-32.6,15.3-32.6l0.7-0.3l0.8-0.1l2.4-2.2c0.6,2,5.6,30.6,6.8,47.3C494,636.9,482.2,633,482.2,627.6L482.2,627.6z"/>
<path class="st2" d="M611.2,685.3c-0.7-4.7-1.3-9.5-1.8-14.1v-0.1c-0.2-1.5-0.4-3.1-0.5-4.6v-0.2c-0.7-6.4-1.3-12.5-1.8-18.1
	c-0.3-4.3,0-8.5,0.6-12.6c1.7-28.7,2.6-59,2.6-59c0.9-12.4,1.4-24,1.8-34.8c0,0-39.2-18.5-42.8-19.6c0,0,7.4,17.5,13,56.5
	c2.1,15,6.1,40.2,9,66c1.6,13.9,4.5,28.1,6.7,40.6c0.3,1.9,0.7,3.8,1,5.7h13C611.7,689.1,611.4,687.2,611.2,685.3L611.2,685.3z
	 M545.9,639.2c1.5-14.5,2.9-29,2.3-36.9c-5.4-63.8-20.7-80.7-22.9-83.2c-1.7,0.7-8.2,3.1-10.2,3.9c-10.5,4.1-31.8,11.7-34.7,13.8
	c-5,3.6-24.6,95.3-25.2,101.2c-0.4,4,25.3,12.4,51.4,19.9c-0.2,7.2,0.4,17.3-1.9,27.9c-0.4,1.9-1,3.1-1.1,5.5L540,691
	c0.2-1.9,0.5-3.8,0.7-5.7c0.7-5.7,1.4-11.5,2.1-17.8c10.9,2.8,18.4,4.7,18.4,4.7s10.3-17.4,13.3-24.4
	C574.9,646.6,561.7,643.4,545.9,639.2L545.9,639.2z M498.7,617.2c-0.3-13.1-0.3-22.2-0.3-22.2c1.3,4.5,3.1,17.3,4.7,30
	C497.7,622.4,498.7,619.9,498.7,617.2L498.7,617.2z"/>
<path class="st6" d="M528.7,518.4c0,0,4-7.5,2.9-28.8c-0.3-5.9,31,14,31,14s-0.1,2-0.2,4.8c0,1.1-0.1,2.4-0.1,3.7v2.8
	c0,0.7,0,1.4,0.1,2.1c0,0.8,0.1,1.5,0.2,2.2c0.1,1.3,0.9,3.6,1.2,4.2C565.2,526.6,540.4,526.8,528.7,518.4L528.7,518.4z"/>
<path class="st6" d="M561.1,524.8L555,532c0,0-9.9-1.9-12.8-7.1C539.2,519.7,561.1,524.8,561.1,524.8L561.1,524.8z"/>
<path class="st2" d="M620.5,599.6c-8.9-12.8-17.3-15.9-17.3-15.9S577,553,598,539.3c0,0,9-0.2,14,2.5c5.1,2.8,15.9,25.4,17.8,29.4
	c1.8,4,2.1,10.2,3.4,11.1C633.1,582.2,635.4,598.2,620.5,599.6z"/>
<path class="st6" d="M586.7,679.9c0,0-2.7-0.1-3.8-0.7c0,0-2-1.3-3.5-2.1c-0.5-0.3-0.9-0.5-1.2-0.6c-1.2-0.5-3.9-1.1-6.4-3
	s-10.7-9.5-10.7-9.5l5.3-8.1l2.4-8c0,0,19,1.9,21.6,3.4c0.2,0.1,0.5,0.3,0.7,0.5c2,1.5,2.9,3.4,3.9,4.3c0.4,0.3,3.7,3.9,3.5,5.3
	c-0.3,2-1.2,3.3-2.5,3.9c0,0-0.7,3.9-2.7,5.6c0,0-0.5,3.6-3.6,5.1C589.7,675.9,588.8,679.5,586.7,679.9L586.7,679.9z M545.4,435
	c0,0,31.6-16,34.5,28.1c2.9,44-4.3,49.4-26.7,45.7c-22.4-3.6-27.4-31.1-31.7-44.1C517.2,451.8,534.8,438.2,545.4,435z"/>
<path class="st6" d="M538.3,464.8c-0.5-3.8-8.1-5.1-8.6,0.6c-0.5,5.8,3.7,15.8,6.5,14.7C539,479.1,539,470.1,538.3,464.8
	L538.3,464.8z"/>
<path class="st7" d="M528.6,486c0,0-2.5-13.5,2.3-15.1c4.7-1.6,6.8,3.5,6.8,3.5l5.1-0.3c0,0-4.5-11.2-0.1-14.5
	c4.3-3.2,33-1.5,36-5.9s16-21.6-13.4-22.6c-11.3-0.4-29-4-36.9,8.6c0,0-10.7,4.5-10.6,8.2C517.8,457.4,523.9,480.1,528.6,486
	L528.6,486z"/>
<path class="st2" d="M575.4,647.8l-14.2,24.4c0,0-37.6-9.7-46.4-12.2l20.1-23.9C534.8,636.2,564.4,642.9,575.4,647.8L575.4,647.8z"
	/>
<path class="st8" d="M562.5,514.6c-18.5-1.9-25.6-16.1-25.6-16.1c11.6,11.5,25.5,11.2,25.5,11.2v2.8
	C562.4,513.2,562.4,513.9,562.5,514.6z"/>
<path class="st6" d="M566.4,515.6c0,0,1,1.8,1.8,2.4c0,0,1.6,1,2.6,1.7c0.3,0.2,0.6,0.5,0.8,0.6c0.7,0.7,2.1,2.3,4.2,3.5
	c2.2,1.1,10.2,4.3,10.2,4.3l3.9-6.4l4.8-4.4c0,0-7.6-12.7-9.5-14l-0.6-0.3c-1.7-0.9-3.4-0.9-4.3-1.3c-0.4-0.1-3.9-1.3-4.9-0.7
	c-1.3,0.8-1.9,2-1.9,3c0,0-2.5,1.8-3.1,3.7c0,0-2.4,1.5-2.3,4.2C568.2,512.1,565.9,514,566.4,515.6z"/>
<path class="st9" d="M595.4,514c0,0,31,47,32.8,60.5s-6.7,19.3-14,14.9c-7.2-4.4-31-60-31-60L595.4,514z"/>
<path class="st2" d="M687.6,379.7c-47.2,0-85.4,22.1-85.4,49.4c0,10.6,5.8,20.5,15.7,28.5l-1.3,11.1l10.5-4.8
	c15.5,9,36.9,14.5,60.5,14.5c47.2,0,85.4-22.1,85.4-49.4S734.8,379.7,687.6,379.7L687.6,379.7z"/>
<circle class="st10" cx="637.9" cy="427.6" r="4.6"/>
<circle class="st10" cx="657.8" cy="427.6" r="4.6"/>
<circle class="st10" cx="677.8" cy="427.6" r="4.6"/>
<circle class="st10" cx="697.8" cy="427.6" r="4.6"/>
<circle class="st10" cx="717.8" cy="427.6" r="4.6"/>
<circle class="st10" cx="737.7" cy="427.6" r="4.6"/>
<path class="st2" d="M660.7,597.9l-10,93.3h132l10.1-93.3H660.7z"/>
<path class="st2" d="M662.2,691.1h-22.1v-8.4h22.1V691.1z"/>
<path class="st1" d="M714.4,643c-1.1,5.2,1.4,10.1,5.4,10.9c4,0.8,8.2-2.7,9.3-7.9s-1.4-10.1-5.4-10.9
	C719.6,634.3,715.5,637.8,714.4,643z"/>
</svg>
